<svg width="4768" height="4768" viewBox="0 0 4768 4768" fill="none" xmlns="http://www.w3.org/2000/svg">
<circle cx="2384" cy="2384" r="2342.5" fill="white" stroke="black" stroke-width="83"/>
<path d="M2588.44 2345.93C2722.02 2304.16 2885.6 2314.56 2953.98 2325.4L2957.17 2325.91L2957.23 2325.92L2957.28 2325.94L3881.78 2710.94L3881.94 2711.01L3882.02 2711.16L3916.52 2773.16L3916.6 2773.31L3916.58 2773.47C3916.28 2775.86 3914.9 2779.63 3912.05 2784.74C3909.2 2789.88 3904.86 2796.4 3898.59 2804.3C3886.06 2820.11 3865.83 2841.47 3834.41 2868.29C3818.63 2881.76 3797.12 2890.65 3772.69 2896.17C3748.25 2901.69 3720.86 2903.85 3693.29 2903.82C3638.13 2903.76 3582.17 2894.98 3547.47 2886.89L3547.45 2886.89L3547.43 2886.88L2840.18 2656.96L2540.23 2881.05L2600.03 2990.17L2600.03 2990.18L2600.04 2990.19C2609.8 3010.89 2622.69 3045.31 2629.64 3081.31C2636.58 3117.29 2637.61 3154.98 2623.53 3182.14C2609.48 3209.23 2582.58 3236.07 2554.71 3258.61C2526.83 3281.15 2497.93 3299.41 2479.83 3309.34L2479.82 3309.35C2302.32 3404.85 1902.73 3621.54 1724.34 3724.34C1635.13 3775.74 1579.59 3800.72 1546.4 3811.06C1529.81 3816.22 1518.76 3817.75 1511.85 3817.05C1508.39 3816.7 1505.92 3815.79 1504.32 3814.45C1502.73 3813.11 1502.04 3811.37 1502.09 3809.47C1500.15 3802.86 1497.54 3786.15 1495.9 3757.36C1494.25 3728.44 1493.59 3687.3 1495.59 3631.89C1499.59 3521 1557.94 3477.73 1586.88 3469.94L2108.58 3136.95C2047.64 3105.71 1904.76 3031.02 1814.34 2978.84C1723.36 2926.34 1711.58 2842.39 1717.09 2806.87V2508.41H1718.09V2513.07C1719.04 2506.65 1720.7 2500.25 1723.25 2494.43C1727.67 2484.39 1734.75 2476.03 1745.42 2472.25C1756.08 2468.47 1770.22 2469.31 1788.66 2477.44C1807.11 2485.57 1829.9 2501.02 1857.92 2526.54C1969.73 2628.35 2072.11 2593.21 2109.27 2563.02L2109.31 2562.99L2109.35 2562.96C2212.52 2508.3 2452.79 2388.34 2588.44 2345.93ZM1461.5 957.413C1522.99 945.981 1577.26 952.363 1597.76 957.191L1598.71 957.419L1598.79 957.44L1598.86 957.485L1903.36 1152.48L1903.36 1152.49C2055.2 1253.32 2412.07 1491.39 2624.87 1636.99C2731.29 1709.81 2795.41 1767 2832.32 1808.93C2850.78 1829.89 2862.45 1847.04 2869.2 1860.44C2875.89 1873.7 2877.79 1883.35 2876.6 1889.37C2886.96 1919.23 2901.36 2002.67 2876.57 2099.03C2851.72 2195.64 2784.66 2217.24 2754.09 2215.9V2215.91H2550.04L2549.99 2215.9C2530.32 2212.2 2478.82 2186.56 2429.17 2113.69C2398.15 2068.15 2376.26 2022.49 2359.38 1983.04C2350.94 1963.32 2343.75 1945.13 2337.3 1929.31C2330.85 1913.5 2325.15 1900.04 2319.67 1889.7L2083.25 1637.77L1499.77 1153.29L1499.71 1153.24L1499.67 1153.18C1480.24 1123.08 1454.99 1077.18 1442.4 1037.34C1436.11 1017.43 1432.95 998.969 1435.32 984.725C1436.51 977.594 1439.08 971.496 1443.36 966.81C1447.65 962.12 1453.61 958.88 1461.5 957.413ZM2947.54 1527.89C2987.86 1526.38 3088.08 1522.61 3184.33 1576.97C3281.04 1631.59 3318.08 1746.79 3319.59 1819.89C3320.34 1856.41 3318.96 1891.6 3307.57 1929.05C3296.17 1966.5 3274.75 2006.19 3235.47 2051.73C3203.97 2088.24 3160.89 2106.2 3119.88 2113.82C3078.89 2121.44 3039.93 2118.74 3016.53 2113.9C3011.74 2113.88 3004.31 2110.65 2997.2 2101.31C2990.06 2091.92 2983.2 2076.33 2979.59 2051.48C2970.59 1989.48 2967.09 1967.47 2961.59 1919.96C2958.84 1896.23 2955.1 1875.81 2943.21 1853.58C2931.31 1831.34 2911.23 1807.26 2875.76 1776.28C2847.33 1751.46 2829.54 1729.92 2818.86 1713.07C2808.23 1696.3 2804.61 1684.12 2804.59 1677.96C2802.5 1669.07 2800.83 1654.25 2802.58 1638.52C2804.33 1622.77 2809.52 1606.07 2821.22 1593.56C2835.77 1578.02 2857.19 1561.99 2879.97 1549.65C2902.75 1537.32 2926.96 1528.66 2947.07 1527.91L2947.54 1527.89ZM1828.67 1772.12C1942.69 1770.98 2049.82 1772.6 2098.67 1780.41C2196.47 1796.05 2217.76 1855.46 2216.09 1883.42V2037.57L2215.99 2037.7C2205.46 2052.41 2174.1 2086.71 2132.8 2106.36C2122.41 2111.3 2105.52 2114.26 2085.05 2115.82C2064.55 2117.38 2040.4 2117.53 2015.44 2116.82C1965.5 2115.39 1912.29 2110.49 1878.53 2106.4L1878.51 2106.4L1878.5 2106.4L930.999 1937.9L930.986 1937.9L930.972 1937.89C915.423 1934.21 892.845 1925.51 875.644 1911.34C858.43 1897.16 846.542 1877.44 852.601 1851.79C858.611 1826.35 866.387 1811.55 873.715 1803.4C880.991 1795.3 887.884 1793.71 892.144 1794.9L1517.08 1780.41C1593.66 1777.16 1714.64 1773.26 1828.67 1772.12Z" fill="black"/>
</svg>
